<svg width="21" height="19" viewBox="0 0 21 19" fill="none" xmlns="http://www.w3.org/2000/svg">
<path opacity="0.5" d="M19.5 0H1.49531C0.670313 0 0 0.59799 0 1.33207V17.1437C0 17.8778 0.670313 18.4758 1.49531 18.4758H19.5C20.325 18.4758 21 17.8778 21 17.1437V1.33207C21 0.59799 20.325 0 19.5 0ZM6.34687 15.8364H3.23438V7.01916H6.35156V15.8364H6.34687ZM4.79062 2.6394C5.78906 2.6394 6.59531 3.34874 6.59531 4.22717C6.59531 5.10559 5.78906 5.81493 4.79062 5.81493C3.79219 5.81493 2.98594 5.10559 2.98594 4.22717C2.98594 3.34874 3.79219 2.6394 4.79062 2.6394ZM18.0141 15.8364H14.9016V11.5474C14.9016 10.5246 14.8781 9.20904 13.2844 9.20904C11.6625 9.20904 11.4141 10.3225 11.4141 11.4732V15.8364H8.30156V7.01916H11.2875V8.22339H11.3297C11.7469 7.53054 12.7641 6.80058 14.2781 6.80058C17.4281 6.80058 18.0141 8.62755 18.0141 11.003V15.8364Z" fill="white"/>
</svg>
